<svg width="85" height="32" viewBox="0 0 85 32" fill="none" xmlns="http://www.w3.org/2000/svg">
<g clip-path="url(#clip0_3_85)">
<g filter="url(#filter0_d_3_85)">
<path d="M70.2538 15.9154C70.2098 15.905 70.1699 15.882 70.1389 15.8493C70.0499 15.6176 69.9137 15.4071 69.7392 15.2308C69.5646 15.0545 69.3554 14.9164 69.1247 14.8251L69.1132 14.8161C69.1038 14.3478 68.7377 14.0661 68.5289 13.7025C67.4411 11.8063 66.5164 9.88095 66.9955 7.57996C67.1431 6.87062 67.6012 6.30234 67.7422 5.60468L67.7594 5.59041C67.9245 5.55306 68.0748 5.46796 68.1918 5.3457C68.3087 5.22343 68.3871 5.06944 68.4171 4.90292C68.485 4.84477 68.5527 4.7866 68.6205 4.72839C68.9743 4.75283 69.2042 4.50362 69.4487 4.32155C70.2618 3.74325 71.1115 3.21799 71.9922 2.74906C74.1186 1.55554 76.2737 1.21536 78.6266 2.17115C79.5233 2.53544 80.3341 3.0753 81.2638 3.35054C81.3291 3.41064 81.3944 3.47073 81.4597 3.53081C81.4559 3.58714 81.462 3.64372 81.478 3.69789C82.4918 5.62772 82.8578 7.55522 81.4753 9.48466C81.4471 9.52404 81.4627 9.59486 81.4578 9.651C81.3952 9.7134 81.3328 9.7758 81.2703 9.8382C80.6543 10.07 80.0559 10.2321 79.4113 9.86374C78.5936 9.45799 77.7293 9.15364 76.8377 8.9573C76.3229 8.81165 75.7341 8.59977 75.2476 9.10091L75.2124 9.13543C74.6714 9.67092 75.201 10.0107 75.4859 10.3146C76.818 11.7346 78.6856 12.3062 80.2997 13.282C80.4706 13.4516 80.6416 13.6212 80.8125 13.7907C81.3325 14.8863 81.9593 15.9261 82.4295 17.0501C83.2136 18.9243 83.5314 20.7537 82.6707 22.7326C82.2693 23.6553 81.8215 24.5729 81.5049 25.5369L81.5064 25.5345C81.4025 25.5718 81.3046 25.6244 81.2161 25.6904C79.4893 27.4492 77.3169 28.0438 74.9367 28.1182C72.4947 28.2491 70.0465 28.028 67.6675 27.4615L67.6552 27.4486C67.739 26.8349 67.3287 26.383 67.1396 25.8577C66.7816 24.8628 66.0036 23.9629 66.4022 22.7891C66.8595 21.5012 67.4168 20.2511 68.0689 19.0501C68.3532 18.508 68.5813 18.3755 69.1798 18.7171C70.7322 19.6035 72.1857 20.6922 73.9904 21.0946C75.1418 21.3512 76.0223 21.0888 76.5971 20.1665C77.0732 19.4025 76.8555 18.7592 75.9863 18.5167C75.441 18.3561 74.9118 18.1456 74.4052 17.8879C73.0286 17.2155 71.6385 16.5711 70.2538 15.9154ZM74.0878 25.1363C74.5787 25.1363 75.1542 25.17 75.7247 25.1302C77.7882 24.9865 79.4699 24.1692 80.5412 22.3181C81.1412 21.2069 81.4126 19.9478 81.3236 18.6881C81.2563 16.15 80.236 14.2469 77.9049 13.104C76.8019 12.5632 75.7215 11.9754 74.6413 11.3894C73.6875 10.9066 72.9333 10.1042 72.5104 9.12222C71.8837 7.62888 72.7015 6.0846 74.2849 5.91202C75.7412 5.75331 77.2244 5.71919 78.5962 6.33251C79.2071 6.60566 79.3791 6.38956 79.6164 5.90081C80.4696 4.1436 80.4778 4.13528 78.6554 3.46655C78.5481 3.42718 78.4492 3.36376 78.341 3.32864C76.9555 2.87937 75.5714 2.31305 74.0947 2.9179C72.5825 3.52202 71.1426 4.29323 69.8017 5.21718C69.1704 5.65434 68.6553 6.23892 68.301 6.92022C67.9467 7.6015 67.764 8.35894 67.7688 9.12682C67.7735 9.89471 67.9655 10.6498 68.328 11.3268C68.6906 12.0036 69.2128 12.5819 69.8494 13.0113C70.9844 13.8002 72.294 14.234 73.5192 14.8386C74.8731 15.5069 76.3284 16.0011 77.2881 17.2809C78.3048 18.6367 78.2722 20.4837 77.141 21.2965C76.6822 21.6419 76.1511 21.8788 75.5876 21.9895C75.0241 22.1001 74.4429 22.0816 73.8876 21.9354C72.3144 21.5075 70.8243 20.8186 69.4793 19.8975C69.0022 19.5928 68.7478 19.5823 68.5346 20.185C68.2517 21.0523 67.8929 21.893 67.4626 22.6975C66.9919 23.5253 67.3978 23.8385 68.0651 24.0868C69.9695 24.8808 72.0271 25.2393 74.0878 25.1363ZM73.4633 27.4132C74.4277 27.3344 75.1979 27.2871 75.9635 27.2002C76.2141 27.1718 76.5272 27.0629 76.5817 26.7992C76.6523 26.4566 76.2644 26.4628 76.0651 26.3377C75.7487 26.1987 75.3998 26.1501 75.0574 26.1976C73.6601 26.1625 72.271 26.241 70.8742 25.9064C69.9307 25.6805 69.0236 25.3392 68.0755 25.1469C67.9102 25.1134 67.6912 24.8933 67.5799 25.2191C67.4656 25.5541 68.3319 26.8382 68.7252 26.8844C70.3678 27.0771 72.0124 27.2527 73.4633 27.4132ZM78.0308 7.43578C77.8244 7.48389 77.5778 7.53952 77.3322 7.59928C77.1246 7.64978 76.8258 7.61312 76.8722 7.95777C76.91 8.23697 77.1495 8.29415 77.387 8.29938C77.6955 8.32784 77.9993 8.395 78.2911 8.49926C78.696 8.61081 79.2639 9.19517 79.5137 8.56914C79.754 7.96676 78.9979 7.82908 78.5676 7.60762C78.3934 7.53635 78.2139 7.47889 78.0308 7.43578Z" fill="#4035A7"/>
<path d="M48.9226 27.3485C48.8035 27.4736 48.6845 27.5986 48.5655 27.7236C47.6346 28.1492 46.7097 28.5889 45.7704 28.995C45.5005 29.1325 45.2011 29.202 44.8983 29.1976C44.5956 29.1933 44.2983 29.1152 44.0325 28.9701C42.9099 28.3385 41.8619 27.5826 40.9082 26.7169C40.6963 26.5229 40.5356 26.2794 40.4408 26.0083C40.3458 25.7372 40.3194 25.4467 40.3641 25.1629C40.4775 24.0585 40.7111 22.9697 41.0607 21.9159C41.7935 19.7825 42.3643 17.6034 42.8977 15.4148C43.5448 12.7592 44.1931 10.1031 44.7813 7.43412C45.0697 6.12501 45.6796 4.92606 45.9649 3.62237L45.9794 3.6067C47.3746 2.8793 48.893 2.64298 50.4249 2.37251C52.3095 2.03975 54.1662 1.30121 55.9679 2.60151C55.9836 2.6129 56.0223 2.59259 56.0503 2.5871L56.0588 2.59597C56.0507 2.70755 56.0607 2.8197 56.0882 2.92811C57.8655 6.91255 59.6472 10.8949 61.4336 14.8753C62.4409 17.1096 63.6902 19.2246 64.6947 21.4633C65.0458 22.2459 64.74 22.6438 64.0986 22.8321C62.1661 23.3997 60.4618 24.4507 58.648 25.2682C57.7254 25.684 56.827 26.5984 55.6462 25.872C55.3047 25.528 54.9631 25.184 54.6216 24.84C54.6483 24.5761 54.4664 24.42 54.3108 24.2554C53.6886 23.5726 53.3225 22.6953 53.2747 21.773C53.1049 20.4726 52.8339 19.1875 52.4641 17.9293C52.3719 17.5511 52.281 17.0743 51.7182 17.1884C51.2432 17.2904 50.7784 17.435 50.3294 17.6206C50.0286 17.7412 49.772 17.9793 49.8792 18.3558C50.2349 19.6044 50.2168 20.9021 50.3736 22.1744C50.5998 24.0094 51.104 25.9834 48.9775 27.1917C48.9412 27.2123 48.9401 27.2949 48.9226 27.3485ZM41.5245 25.7445C42.1116 26.3114 42.7516 26.011 43.3307 25.7862C44.4545 25.369 45.5332 24.8391 46.55 24.2044C47.9431 23.3058 48.1222 23.769 47.75 21.7678C47.7194 21.5122 47.7117 21.2541 47.727 20.997C47.7228 19.3956 47.7198 17.7941 47.7181 16.1926L47.8882 16.0226C49.0342 15.7304 49.9822 14.9937 51.0903 14.6078C52.3546 14.1674 52.4715 14.2103 52.9472 15.4824C53.641 17.3373 53.8281 19.3099 54.2781 21.221C54.4494 21.9487 54.7538 21.9401 55.3021 21.7456C55.8907 21.5368 56.4969 21.3778 57.0894 21.179C58.2762 20.8605 59.4298 20.4294 60.5346 19.8914C61.0311 19.6117 61.239 19.3864 60.9273 18.7543C60.0301 16.9347 59.2333 15.0656 58.3991 13.2149C56.9546 10.0104 55.5038 6.80877 54.0751 3.59728C53.7939 2.9652 53.4962 2.64221 52.7148 2.90245C51.4441 3.32562 50.0891 3.42435 48.7905 3.73067C47.8253 3.95834 46.6163 3.89101 46.1787 5.17823C45.6927 6.75729 45.3144 8.36753 45.0467 9.9978C44.54 12.6022 43.8066 15.1485 43.1934 17.725C42.6082 20.1843 41.9221 22.6198 41.2875 25.0675C41.2245 25.3107 41.1443 25.5885 41.4958 25.7114L41.5245 25.7445ZM62.7241 21.6889C62.6905 21.5335 62.6253 21.3865 62.5328 21.2572C62.4403 21.1278 62.3223 21.0187 62.1861 20.9366C62.0499 20.8546 61.8983 20.8011 61.7408 20.7798C61.5831 20.7584 61.4228 20.7695 61.2696 20.8124C60.538 21.1124 59.8127 21.4282 59.0897 21.7487C57.9699 22.2448 56.7095 22.2441 55.5907 22.7485C55.3194 22.8708 55.0432 22.9811 55.0223 23.3088C54.9862 23.8755 56.5482 24.9565 57.0606 24.7146C58.798 23.8945 60.5304 23.0639 62.2577 22.2224C62.4789 22.1153 62.7585 22.0316 62.7241 21.6889ZM44.8678 28.0777C45.2385 28.0652 47.6739 26.8664 48.2969 26.4267C48.9657 25.9546 48.9115 25.5034 48.1818 25.1089C47.9849 25.0216 47.7681 24.9887 47.554 25.0134C47.3401 25.0382 47.1366 25.1199 46.9648 25.25C45.9797 25.8109 44.9305 26.2511 43.84 26.5609C43.5501 26.6319 43.318 26.8373 43.4976 27.1084C43.8232 27.5855 44.3096 27.9295 44.8678 28.0777Z" fill="#4035A7"/>
<path d="M4.23761 26.3544C4.17652 26.293 4.11544 26.2316 4.05436 26.1703C3.64233 25.0502 2.84787 24.1338 2.43429 23.0015C1.61211 20.7503 0.877673 18.5245 0.875009 16.0599C0.87273 13.9481 1.30366 11.9257 1.67292 9.88881C1.83621 8.98814 1.95961 8.00196 2.47954 7.2134C4.024 4.87097 5.77492 2.78252 8.70508 2.05566C11.0163 1.48232 13.0331 1.70634 14.7339 3.55351C15.8056 4.7399 16.6801 6.09069 17.3236 7.55432C18.431 10.0264 19.1679 12.6481 19.5108 15.3351C19.8021 17.4961 19.2363 19.5747 18.4837 21.6067C17.9645 23.1144 17.1005 24.4801 15.9605 25.5952C14.8206 26.7103 13.4363 27.5439 11.9175 28.0298C9.6731 28.7796 7.40425 28.1583 5.35457 26.9441C4.9922 26.7295 4.70766 26.3657 4.23761 26.3544ZM3.48767 15.1849C3.43749 17.8516 4.82171 21.2594 7.96635 23.8421C9.36316 24.9894 11.0107 25.7905 12.8668 25.4278C16.1711 24.782 17.8179 21.4908 18.3049 19.1241C18.677 17.0375 18.5706 14.8937 17.9938 12.8542C17.308 10.0983 16.3815 7.45657 14.7141 5.11512C12.1238 1.47765 7.21974 1.86413 5.22509 5.87087C3.97804 8.37584 3.53337 11.048 3.48767 15.1849ZM3.14937 8.23919C2.7906 8.49251 2.54501 8.87599 2.46499 9.30783C2.35002 9.94691 2.11011 10.5634 1.99229 11.2023C1.70484 12.7608 1.22465 14.2987 1.59095 15.925C1.81545 16.9217 1.90275 17.9456 2.13732 18.946C2.53801 20.9241 3.28576 22.8157 4.34593 24.533C5.05705 25.6178 5.66626 25.7542 6.88281 25.3181C7.66413 25.0379 7.43508 24.7613 6.98786 24.4424C6.15598 23.7886 5.44842 22.9906 4.89891 22.0865C3.75501 20.38 2.99908 18.4435 2.68433 16.4133C2.38145 14.5242 2.37818 12.599 2.67466 10.7087C2.78902 9.9384 3.18867 9.21965 3.14937 8.23919Z" fill="#4035A7"/>
<path d="M39.4274 9.71602C39.5843 12.053 38.8607 14.3641 37.3989 16.1942C36.8069 16.8559 36.1159 17.422 35.3505 17.8722C34.7836 18.2521 34.7531 18.5365 35.1029 19.1119C36.1351 20.7229 37.0461 22.4085 37.8281 24.1548C38.5428 25.8562 38.5703 27.5008 36.5007 28.5757C35.6386 29.0236 34.8105 29.5331 33.917 29.9263C33.2445 30.2223 32.7691 30.1676 32.306 29.5132C31.3586 28.1743 30.6843 26.6886 29.8708 25.2788C29.7457 25.062 29.7118 24.6085 29.3509 24.7263C29.0435 24.8266 29.1321 25.2358 29.1728 25.4997C29.3365 26.7489 29.3115 28.0154 29.0987 29.2571C28.9275 30.4319 28.3446 30.8383 27.2088 30.5278C26.3455 30.3124 25.4535 30.2354 24.5661 30.2997C24.1364 30.3287 23.7068 30.2424 23.3218 30.0498C22.9366 29.8572 22.6099 29.5652 22.3755 29.204C21.8778 28.5851 21.5172 27.8678 21.3173 27.0993C21.1173 26.3308 21.0827 25.5287 21.2157 24.7458C21.5751 22.3258 21.7848 19.8694 22.101 17.4363C22.586 13.7032 23.0476 9.966 23.6662 6.24951C23.8199 5.32602 24.0116 4.40125 24.1127 3.46232C24.2924 1.7908 25.1604 1.08091 26.9042 0.990328C27.7053 0.995997 28.5015 1.11675 29.2683 1.34889C31.1803 1.8 33.1808 1.85387 35.025 2.59498C38.1063 3.83317 39.381 5.7134 39.4264 9.02937C39.4296 9.25846 39.4269 9.48765 39.4274 9.71602ZM28.8358 26.7683H28.8442C28.8442 26.2815 28.8081 25.7911 28.8544 25.3086C28.901 24.8232 28.5764 24.0367 29.1123 23.9241C29.707 23.7991 29.9127 24.6112 30.1603 25.0965C30.8618 26.5592 31.6677 27.9692 32.5718 29.316C32.9052 29.7876 33.218 29.9735 33.7791 29.638C34.3614 29.2901 35.0144 29.0626 35.6115 28.7366C38.1272 27.3625 38.4444 26.5144 37.3475 23.8454C36.6091 22.1793 35.7254 20.5814 34.7066 19.0703C34.3354 18.4863 34.4187 18.1611 34.9182 17.808C35.2209 17.5939 35.5192 17.3733 35.8127 17.1462C36.6021 16.5809 37.2795 15.8738 37.8104 15.0609C38.9269 13.1464 39.3957 10.9226 39.1469 8.72023C38.8898 5.37811 37.3673 3.40014 34.0522 2.62853C32.0018 2.15129 29.9105 1.85035 27.8583 1.37963C26.9135 1.16292 26.0994 1.46755 25.297 1.77501C24.3475 2.13881 24.4917 3.16903 24.3598 3.92124C23.893 6.58285 23.5444 9.26528 23.1595 11.941C22.8554 14.0548 22.5279 16.1662 22.2753 18.2863C21.9619 20.9162 21.722 23.5547 21.4355 26.188C21.3469 27.0021 22.624 29.4178 23.3742 29.7584C23.5325 29.8249 23.7046 29.852 23.8758 29.8374C25.0459 29.8037 26.2154 29.9234 27.3545 30.1934C28.3523 30.3771 28.7729 30.0392 28.8281 29.0019C28.8676 28.2593 28.8358 27.513 28.8358 26.7683Z" fill="#837CC6"/>
<path d="M4.23751 26.3544C4.70758 26.3657 4.99211 26.7295 5.35448 26.9441C7.40417 28.1583 9.67303 28.7796 11.9173 28.0298C13.4361 27.5439 14.8205 26.7103 15.9605 25.5952C17.1003 24.4801 17.9643 23.1144 18.4836 21.6067C19.2362 19.5747 19.802 17.4961 19.5107 15.3351C19.1678 12.6481 18.4309 10.0264 17.3236 7.55432C16.68 6.0907 15.8055 4.73991 14.7337 3.55351C13.0331 1.70635 11.0162 1.48233 8.70501 2.05566C5.77483 2.78253 4.02392 4.87098 2.47948 7.21341C1.95953 8.00197 1.83613 8.98815 1.67283 9.88881C1.30359 11.9257 0.872635 13.9481 0.874915 16.0599C0.877579 18.5245 1.61201 20.7503 2.43419 23.0015C2.84778 24.1338 3.64223 25.0502 4.05426 26.1703C3.16847 25.5832 2.8694 24.6003 2.42193 23.7242C0.754147 20.4586 0.328178 16.954 0.705996 13.3744C0.898325 11.4988 1.28842 9.64875 1.86977 7.8551C2.46313 6.04791 3.89292 4.84946 5.19234 3.55095C6.6696 2.07474 8.56708 1.65782 10.4836 1.38569C12.0047 1.1697 13.3379 1.86845 14.4687 2.86679C16.324 4.50503 17.3935 6.65494 18.2178 8.92564C19.1847 11.5897 20.0617 14.3095 19.7878 17.189C19.3617 21.6689 17.6679 25.3185 13.4729 27.7071C10.6978 29.2871 6.53729 28.3068 4.59804 26.8056C4.44981 26.6908 4.24599 26.5927 4.23751 26.3544Z" fill="#837CC6"/>
<path d="M45.9649 3.62237C45.6796 4.92606 45.0697 6.12501 44.7813 7.43412C44.1931 10.1031 43.5449 12.7592 42.8977 15.4147C42.3643 17.6034 41.7935 19.7825 41.0607 21.9159C40.7111 22.9697 40.4776 24.0585 40.3641 25.1629C40.3194 25.4467 40.3458 25.7372 40.4408 26.0083C40.5357 26.2794 40.6963 26.5229 40.9082 26.7169C41.8619 27.5826 42.9099 28.3385 44.0325 28.9701C44.2983 29.1152 44.5956 29.1932 44.8984 29.1976C45.2012 29.202 45.5005 29.1325 45.7704 28.995C46.7098 28.5888 47.6346 28.1492 48.5655 27.7236C47.5838 28.7467 46.2858 29.1888 44.9789 29.5284C44.2792 29.7103 43.7063 29.1169 43.1377 28.7481C42.2553 28.215 41.4271 27.5967 40.6654 26.902C40.405 26.6542 40.2122 26.3442 40.1049 26.0011C39.9976 25.6581 39.9795 25.2935 40.0522 24.9414C40.3661 23.1729 40.8271 21.4338 41.4301 19.7419C41.9539 18.112 42.2921 16.4389 42.6825 14.7765C43.079 13.0874 43.5716 11.4203 43.9511 9.72771C44.2307 8.24424 44.6131 6.78198 45.0956 5.35152C45.3215 4.75005 45.4331 4.076 45.9649 3.62237Z" fill="#837CC6"/>
<path d="M55.6461 25.872C56.827 26.5984 57.7254 25.684 58.648 25.2682C60.4618 24.4507 62.166 23.3997 64.0986 22.8321C64.7399 22.6438 65.0459 22.2459 64.6946 21.4633C63.6901 19.2246 62.4408 17.1096 61.4337 14.8753C59.6407 10.8979 57.8589 6.9155 56.0883 2.92812C56.0607 2.8197 56.0507 2.70756 56.0588 2.59598C56.6298 2.83146 56.6188 3.43207 56.8225 3.87707C59.3904 9.48831 61.7436 15.1989 64.6278 20.6633C64.7479 20.8907 64.8535 21.1261 64.9565 21.3618C65.3387 22.2372 65.1663 22.8309 64.2429 23.1061C61.8361 23.8234 59.719 25.1471 57.4691 26.1914C56.8091 26.4978 56.1117 26.7826 55.6461 25.872Z" fill="#837CC6"/>
<path d="M70.2538 15.9154C71.6385 16.5711 73.0286 17.2155 74.4051 17.8879C74.9117 18.1456 75.441 18.3561 75.9863 18.5167C76.8555 18.7592 77.0731 19.4025 76.597 20.1665C76.0222 21.0888 75.1418 21.3512 73.9904 21.0946C72.1856 20.6922 70.7321 19.6035 69.1798 18.7171C68.5812 18.3755 68.3532 18.5081 68.0688 19.0501C67.4167 20.2511 66.8594 21.5012 66.4022 22.7891C66.0036 23.9629 66.7816 24.8628 67.1396 25.8577C67.3286 26.383 67.739 26.8349 67.6552 27.4486C66.9449 26.3887 66.4134 25.2194 66.0817 23.9872C65.7742 22.841 66.4468 21.8273 66.8579 20.8063C67.1339 20.1204 67.5208 19.4799 67.8407 18.8107C68.1582 18.1468 68.5865 18.0708 69.2311 18.4009C70.4498 19.0251 71.5035 19.9489 72.8285 20.3746C73.397 20.5572 73.9666 20.7379 74.542 20.8971C74.8098 20.9505 75.0869 20.9336 75.3463 20.8481C75.6056 20.7626 75.8385 20.6114 76.022 20.4091C76.1905 20.297 76.3236 20.1392 76.406 19.9544C76.4883 19.7695 76.5165 19.5651 76.4872 19.3648C76.399 18.9419 76.0066 18.8627 75.6519 18.7314C73.881 18.0131 72.1568 17.1845 70.4896 16.2504C70.382 16.1945 70.3311 16.0297 70.2538 15.9154Z" fill="#837CC6"/>
<path d="M48.9225 27.3485C48.94 27.2949 48.9412 27.2123 48.9775 27.1917C51.104 25.9834 50.5998 24.0094 50.3736 22.1744C50.2168 20.9021 50.2348 19.6044 49.8792 18.3558C49.7719 17.9793 50.0285 17.7412 50.3294 17.6206C50.7784 17.435 51.2432 17.2904 51.7181 17.1884C52.281 17.0743 52.3719 17.5511 52.4641 17.9293C52.8338 19.1875 53.1048 20.4726 53.2747 21.773C53.3225 22.6953 53.6886 23.5726 54.3107 24.2554C54.4664 24.42 54.6483 24.5761 54.6216 24.84C53.5286 24.0855 53.1211 23.0044 52.9637 21.7198C52.7763 20.4822 52.5245 19.2553 52.2092 18.0441C52.0546 17.3733 51.5602 17.5834 51.112 17.6853C50.6067 17.8001 50.2035 17.9129 50.2701 18.6123C50.4322 20.3169 50.8263 21.9987 50.7787 23.7238C50.7692 24.0671 50.7804 24.4111 50.7797 24.7548C50.7771 26.1502 50.2968 26.8206 48.9225 27.3485Z" fill="#837CC6"/>
<path d="M67.6675 27.4615C70.0465 28.028 72.4946 28.2491 74.9367 28.1182C77.3169 28.0438 79.4892 27.4493 81.216 25.6904C81.3045 25.6244 81.4024 25.5718 81.5064 25.5345C81.2579 26.4341 80.4621 26.8124 79.76 27.1849C77.482 28.3935 75.0251 28.6732 72.4759 28.4361C71.2533 28.375 70.0354 28.2385 68.8296 28.0271C68.3879 27.9302 67.9041 27.9623 67.6675 27.4615Z" fill="#837CC6"/>
<path d="M81.2638 3.35054C80.3341 3.0753 79.5233 2.53545 78.6265 2.17115C76.2737 1.21536 74.1186 1.55554 71.9922 2.74906C71.1115 3.21799 70.2618 3.74325 69.4487 4.32156C69.2042 4.50362 68.9742 4.75283 68.6204 4.72839C68.611 4.52021 68.7821 4.43084 68.9107 4.33725C70.3936 3.2288 72.0225 2.33039 73.7511 1.66745C75.4342 1.04363 77.0575 1.29712 78.6589 1.88488C79.597 2.22925 80.6234 2.45985 81.2638 3.35054Z" fill="#837CC6"/>
<path d="M81.5048 25.5368C81.8214 24.5729 82.2692 23.6553 82.6706 22.7326C83.5313 20.7537 83.2135 18.9242 82.4294 17.0501C81.9592 15.9261 81.3324 14.8863 80.8124 13.7907C80.9255 13.8123 81.0316 13.8613 81.1214 13.9334C81.2112 14.0054 81.2821 14.0984 81.3278 14.204C82.4487 16.2528 83.7279 18.3033 83.4372 20.7475C83.2325 22.4702 82.7783 24.1957 81.5048 25.5368Z" fill="#837CC6"/>
<path d="M56.0503 2.5871C56.0224 2.59261 55.9837 2.6129 55.9679 2.60151C54.1663 1.30121 52.3096 2.03975 50.425 2.37251C48.8931 2.64298 47.3747 2.87928 45.9794 3.60669C46.5496 2.78886 47.4664 2.54074 48.3349 2.40759C49.9939 2.1533 51.6264 1.80197 53.2659 1.45681C54.3692 1.2245 55.2558 1.87554 56.0503 2.5871Z" fill="#837CC6"/>
<path d="M67.7422 5.60468C67.6012 6.30233 67.1431 6.87062 66.9954 7.57995C66.5164 9.88095 67.4411 11.8063 68.5289 13.7025C68.7376 14.0661 69.1038 14.3478 69.1132 14.8161C67.9986 13.8724 67.5996 12.5219 67.0471 11.2485C66.7013 10.4785 66.5288 9.64183 66.5418 8.79783C66.5548 7.95379 66.7529 7.12288 67.1221 6.36379C67.2604 6.05759 67.3588 5.7133 67.7422 5.60468Z" fill="#837CC6"/>
<path d="M80.2997 13.282C78.6856 12.3061 76.818 11.7346 75.4859 10.3146C75.201 10.0107 74.6714 9.67092 75.2124 9.13543C75.3411 10.0526 76.0441 10.5283 76.7221 10.9688C77.5482 11.5056 78.4477 11.9283 79.297 12.4315C79.673 12.6543 80.1397 12.7951 80.2997 13.282Z" fill="#837CC6"/>
<path d="M81.4578 9.651C81.4627 9.59486 81.4472 9.52414 81.4754 9.48466C82.8579 7.55524 82.4918 5.62774 81.478 3.69789C81.462 3.64372 81.4559 3.58715 81.4598 3.53081C82.4505 4.04267 82.4132 5.061 82.5916 5.93888C82.8412 7.16713 82.7696 8.36922 81.852 9.36434C81.7418 9.48372 81.6611 9.65483 81.4578 9.651Z" fill="#837CC6"/>
<path d="M75.2476 9.10088C75.734 8.59973 76.3229 8.81161 76.8377 8.95726C77.7292 9.1536 78.5935 9.45799 79.4113 9.86365C80.0558 10.2321 80.6543 10.0699 81.2702 9.83811C80.8939 10.4947 80.3785 10.5688 79.6983 10.3011C78.2623 9.73613 76.8589 9.02531 75.2476 9.10088Z" fill="#837CC6"/>
<path d="M69.1247 14.8251C69.3554 14.9164 69.5646 15.0545 69.7392 15.2308C69.9137 15.407 70.0499 15.6176 70.1388 15.8493C69.8972 15.778 69.6773 15.6467 69.5 15.4677C69.3227 15.2886 69.1936 15.0675 69.1247 14.8251Z" fill="#837CC6"/>
<path d="M68.4171 4.90293C68.3871 5.06945 68.3087 5.22344 68.1917 5.3457C68.0748 5.46795 67.9244 5.55307 67.7593 5.59041C67.7721 5.41724 67.8447 5.25388 67.9647 5.12842C68.0847 5.00295 68.2447 4.92322 68.4171 4.90293Z" fill="#837CC6"/>
<path d="M74.0878 25.1363C72.0271 25.2393 69.9694 24.8808 68.0651 24.0868C67.3978 23.8385 66.9919 23.5253 67.4626 22.6975C67.8929 21.893 68.2516 21.0523 68.5346 20.185C68.7478 19.5823 69.0021 19.5928 69.4792 19.8975C70.8243 20.8186 72.3144 21.5075 73.8876 21.9354C74.4428 22.0816 75.0241 22.1001 75.5876 21.9895C76.1511 21.8788 76.6822 21.6419 77.141 21.2965C78.2721 20.4837 78.3048 18.6367 77.2881 17.2809C76.3283 16.0011 74.8731 15.5069 73.5191 14.8386C72.294 14.234 70.9844 13.8002 69.8494 13.0113C69.2128 12.5819 68.6905 12.0036 68.328 11.3267C67.9654 10.6498 67.7735 9.89471 67.7688 9.12681C67.764 8.35893 67.9467 7.6015 68.301 6.92022C68.6553 6.23892 69.1704 5.65434 69.8017 5.21718C71.1426 4.29323 72.5826 3.52201 74.0947 2.91789C75.5714 2.31303 76.9555 2.87936 78.341 3.32863C78.4493 3.36375 78.5481 3.42717 78.6554 3.46654C80.4778 4.13527 80.4697 4.14359 79.6164 5.9008C79.3791 6.38955 79.2071 6.60565 78.5962 6.3325C77.2244 5.71918 75.7412 5.75332 74.2849 5.912C72.7015 6.08459 71.8837 7.62888 72.5104 9.12221C72.9333 10.1042 73.6874 10.9066 74.6413 11.3894C75.7215 11.9754 76.8019 12.5632 77.9049 13.104C80.236 14.2469 81.2563 16.15 81.3236 18.6881C81.4125 19.9478 81.1412 21.2069 80.5412 22.3181C79.4699 24.1692 77.7882 24.9865 75.7247 25.1302C75.1542 25.17 74.5786 25.1363 74.0878 25.1363Z" fill="#CCF575"/>
<path d="M73.4632 27.4132C72.0123 27.2527 70.3677 27.0771 68.7252 26.8844C68.3318 26.8382 67.4655 25.5541 67.5799 25.2191C67.691 24.8933 67.9101 25.1134 68.0755 25.1469C69.0235 25.3392 69.9306 25.6805 70.8742 25.9064C72.271 26.241 73.66 26.1625 75.0574 26.1976C75.3998 26.1501 75.7486 26.1987 76.065 26.3377C76.2643 26.4628 76.6523 26.4566 76.5816 26.7992C76.5272 27.0629 76.2141 27.1718 75.9635 27.2002C75.1979 27.2871 74.4277 27.3345 73.4632 27.4132Z" fill="#837CC6"/>
<path d="M78.0308 7.43577C78.214 7.47888 78.3934 7.53632 78.5675 7.60758C78.998 7.82904 79.7541 7.96673 79.5138 8.56911C79.2639 9.19517 78.6961 8.61081 78.2912 8.49923C77.9994 8.39497 77.6956 8.32781 77.3871 8.29935C77.1495 8.29412 76.9099 8.23694 76.8723 7.95774C76.8258 7.61309 77.1246 7.64975 77.3322 7.59925C77.5778 7.53952 77.8244 7.48388 78.0308 7.43577Z" fill="#837CC6"/>
<path d="M47.8883 16.0225C47.8315 16.0792 47.7749 16.1359 47.7182 16.1927C47.4185 16.2643 47.4235 16.5082 47.4258 16.7353C47.4433 18.4765 47.3843 20.2241 47.5209 21.9561C47.5931 22.8714 47.4693 23.4614 46.585 23.8613C44.9392 24.6055 43.4712 25.8103 41.5245 25.7445L41.496 25.7113C41.8432 24.2949 42.1645 22.8715 42.5423 21.4633C43.9212 16.3237 45.1653 11.152 46.2746 5.94815C46.3314 5.4969 46.5406 5.0786 46.8677 4.76249C47.1947 4.44638 47.6199 4.25142 48.0728 4.20988C49.5615 3.92713 51.0546 3.64869 52.5194 3.26711C53.2184 3.08501 53.5356 3.21681 53.8325 3.87904C56.0332 8.78848 58.2578 13.6871 60.5063 18.5752C60.8059 19.2283 60.6623 19.6001 60.0084 19.8224C58.3836 20.3748 56.7574 20.9229 55.1358 21.4847C54.7389 21.6222 54.6339 21.4364 54.5718 21.0946C54.4334 20.3348 54.2741 19.5787 54.1161 18.8225C53.9056 17.552 53.5849 16.3021 53.1576 15.0872C52.7273 14.0086 52.2725 13.8134 51.2355 14.2293C51.0721 14.2822 50.9122 14.3449 50.7564 14.4171C49.7965 14.9454 48.62 15.0881 47.8883 16.0225ZM47.777 10.419C47.6956 12.0888 48.0311 12.3285 49.3709 11.8568C49.5322 11.8 49.7039 11.7732 49.8656 11.7172C52.0243 10.9708 52.14 10.6493 51.5151 8.41445C50.9771 6.4904 50.6206 6.85105 49.1518 7.301C48.9386 7.38619 48.7479 7.51924 48.5942 7.68987C48.4405 7.8605 48.3282 8.06415 48.2657 8.28511C47.9805 8.96273 47.8151 9.68477 47.777 10.419Z" fill="#FCFCFD"/>
<path d="M47.8883 16.0225C48.62 15.0881 49.7966 14.9455 50.7564 14.4171C50.9122 14.345 51.0722 14.2822 51.2355 14.2293C52.2725 13.8134 52.7274 14.0086 53.1576 15.0872C53.585 16.3021 53.9057 17.552 54.1161 18.8225C54.2741 19.5787 54.4334 20.3348 54.5717 21.0946C54.6339 21.4364 54.739 21.6222 55.1358 21.4847C56.7574 20.9229 58.3837 20.3748 60.0084 19.8224C60.6622 19.6001 60.8059 19.2283 60.5063 18.5752C58.2632 13.6849 56.0386 8.78619 53.8325 3.87905C53.5356 3.21682 53.2184 3.08501 52.5193 3.26712C51.0545 3.6487 49.5615 3.92714 48.0728 4.20989C47.6199 4.25142 47.1947 4.44639 46.8677 4.7625C46.5407 5.07861 46.3314 5.49691 46.2745 5.94816C45.1751 11.1536 43.931 16.3253 42.5423 21.4633C42.1645 22.8715 41.8433 24.2949 41.4959 25.7113C41.1443 25.5885 41.2245 25.3107 41.2876 25.0674C41.9222 22.6197 42.6082 20.1842 43.1935 17.7249C43.8066 15.1485 44.54 12.6022 45.0467 9.99781C45.3144 8.36749 45.6927 6.75724 46.1788 5.1782C46.6164 3.89098 47.8253 3.95831 48.7906 3.73063C50.0891 3.42433 51.4442 3.32561 52.7148 2.90243C53.4962 2.64219 53.7939 2.96518 54.0751 3.59726C55.5038 6.80875 56.9547 10.0104 58.3991 13.2149C59.2333 15.0655 60.0302 16.9347 60.9273 18.7543C61.239 19.3863 61.0311 19.6116 60.5346 19.8914C59.4298 20.4294 58.2762 20.8605 57.0894 21.1789C56.497 21.3777 55.8907 21.5368 55.3021 21.7456C54.7538 21.9401 54.4494 21.9487 54.2781 21.221C53.8281 19.3099 53.641 17.3373 52.9472 15.4824C52.4715 14.2103 52.3546 14.1674 51.0903 14.6077C49.9823 14.9936 49.0343 15.7304 47.8883 16.0225Z" fill="#837CC6"/>
<path d="M62.7234 21.6883C62.7585 22.0316 62.4789 22.1153 62.2577 22.2224C60.5284 23.0596 58.7962 23.8903 57.0607 24.7146C56.5483 24.9565 54.9862 23.8755 55.0223 23.3088C55.0433 22.9811 55.3195 22.8708 55.5908 22.7485C56.7095 22.2442 57.9699 22.2448 59.0897 21.7487C59.8128 21.4283 60.5381 21.1124 61.2697 20.8124C61.4228 20.7694 61.5831 20.7584 61.7405 20.7797C61.8981 20.801 62.0496 20.8544 62.1857 20.9364C62.322 21.0185 62.4398 21.1275 62.5324 21.2568C62.6248 21.386 62.6898 21.5329 62.7234 21.6883Z" fill="#837CC6"/>
<path d="M44.8678 28.0777C44.3096 27.9295 43.8232 27.5855 43.4976 27.1084C43.318 26.8373 43.5501 26.6319 43.84 26.5609C44.9305 26.2511 45.9797 25.8109 46.9648 25.25C47.1366 25.1199 47.3401 25.0382 47.554 25.0134C47.7681 24.9887 47.9849 25.0216 48.1818 25.1089C48.9115 25.5034 48.9658 25.9546 48.2969 26.4267C47.6739 26.8664 45.2385 28.0652 44.8678 28.0777Z" fill="#837CC6"/>
<path d="M41.5244 25.7445C43.4711 25.8103 44.9391 24.6055 46.5849 23.8613C47.4693 23.4614 47.593 22.8714 47.5209 21.9561C47.3843 20.2241 47.4433 18.4765 47.4258 16.7353C47.4234 16.5082 47.4185 16.2643 47.7182 16.1927C47.7208 17.7941 47.7237 19.3956 47.727 20.997C47.7117 21.2541 47.7194 21.5122 47.75 21.7678C48.1222 23.769 47.9431 23.3058 46.55 24.2044C45.5331 24.8391 44.4545 25.369 43.3307 25.7862C42.7516 26.011 42.1116 26.3114 41.5244 25.7445Z" fill="#837CC6"/>
<path d="M3.4877 15.1849C3.53341 11.048 3.97808 8.37584 5.22512 5.87087C7.21977 1.86413 12.1238 1.47765 14.7142 5.11513C16.3816 7.45656 17.3081 10.0983 17.9938 12.8542C18.5707 14.8937 18.677 17.0375 18.305 19.1241C17.8179 21.4908 16.1712 24.782 12.8668 25.4278C11.0108 25.7905 9.36328 24.9894 7.9664 23.8421C4.82174 21.2594 3.43753 17.8516 3.4877 15.1849ZM7.85744 11.0092C7.83863 12.5807 8.0114 14.1486 8.37192 15.6783C8.58189 16.8375 9.12794 17.9095 9.9422 18.761C10.2644 19.0879 10.6591 19.3342 11.0942 19.48C11.5295 19.6258 11.9928 19.667 12.4469 19.6003C12.901 19.5336 13.333 19.3608 13.7078 19.0959C14.0827 18.8311 14.3897 18.4815 14.6043 18.0758C15.6074 16.247 15.5185 14.3544 14.9356 12.4275C14.3012 10.3304 13.4516 8.33726 11.9352 6.71932C10.6779 5.3778 8.88342 5.82045 8.29526 7.54431C7.95417 8.66615 7.80612 9.83783 7.85744 11.0092Z" fill="#D04485"/>
<path d="M3.14934 8.23919C3.18865 9.21965 2.78898 9.9384 2.67462 10.7087C2.37815 12.599 2.38141 14.5242 2.68429 16.4133C2.99904 18.4435 3.75497 20.38 4.89888 22.0865C5.44838 22.9906 6.15595 23.7886 6.98783 24.4424C7.43505 24.7613 7.6641 25.0379 6.88278 25.3181C5.66623 25.7542 5.05702 25.6178 4.3459 24.533C3.28573 22.8157 2.53799 20.9241 2.1373 18.946C1.90272 17.9456 1.81541 16.9217 1.59094 15.925C1.22466 14.2987 1.70482 12.7608 1.99227 11.2023C2.1101 10.5634 2.34999 9.94691 2.46498 9.30783C2.54499 8.876 2.79057 8.49252 3.14934 8.23919Z" fill="#837CC6"/>
<path d="M28.8357 26.7683C28.8357 27.513 28.8676 28.2593 28.8281 29.0019C28.7729 30.0392 28.3522 30.3771 27.3545 30.1934C26.2154 29.9234 25.0458 29.8037 23.8758 29.8374C23.7045 29.852 23.5324 29.8249 23.3741 29.7584C22.624 29.4178 21.3469 27.0021 21.4355 26.188C21.7219 23.5548 21.9619 20.9162 22.2752 18.2863C22.5278 16.1662 22.8553 14.0548 23.1594 11.941C23.5444 9.26532 23.893 6.58288 24.3597 3.9213C24.4916 3.16909 24.3475 2.13886 25.2969 1.77507C26.0994 1.46761 26.9135 1.16296 27.8583 1.37968C29.9104 1.85041 32.0017 2.15135 34.0522 2.62858C37.3673 3.40019 38.8897 5.37817 39.1469 8.72028C39.3957 10.9226 38.9269 13.1464 37.8104 15.061C37.2794 15.8738 36.602 16.581 35.8127 17.1463C35.5189 17.3727 35.2208 17.5933 34.9181 17.808C34.4186 18.1612 34.3354 18.4863 34.7066 19.0703C35.7253 20.5815 36.609 22.1793 37.3475 23.8455C38.4444 26.5145 38.1271 27.3625 35.6115 28.7366C35.0144 29.0626 34.3614 29.2901 33.7791 29.6381C33.218 29.9735 32.9052 29.7876 32.5718 29.316C31.6677 27.9693 30.8618 26.5592 30.1603 25.0966C29.9127 24.6112 29.7069 23.7992 29.1122 23.9242C28.5763 24.0367 28.901 24.8232 28.8544 25.3087C28.8081 25.7912 28.8442 26.2815 28.8442 26.7684L28.8357 26.7683ZM22.4454 26.1964C22.4248 26.2895 22.4259 26.3862 22.4485 26.4788C22.471 26.5715 22.5145 26.6578 22.5756 26.731C22.6367 26.8043 22.7138 26.8625 22.8009 26.9013C22.888 26.9401 22.9829 26.9585 23.0782 26.955C23.8715 27.0519 24.6647 27.1591 25.4611 27.2205C26.9094 27.332 26.9505 27.3231 27.0921 25.8399C27.3523 23.1124 27.5605 20.3799 27.7892 17.6494C27.8102 17.3977 27.749 17.0734 28.057 16.9907C28.3628 16.9084 28.4903 17.2047 28.6122 17.4261C29.2019 18.4974 29.8032 19.563 30.3663 20.6484C31.3345 22.5143 32.2973 24.3836 33.22 26.2722C33.5472 26.9418 33.8783 27.0197 34.4668 26.5824C34.9984 26.1985 35.5597 25.8577 36.1455 25.5629C36.2451 25.5193 36.3344 25.4553 36.4077 25.375C36.481 25.2948 36.5367 25.2 36.5711 25.0969C36.6056 24.9937 36.6179 24.8845 36.6074 24.7763C36.597 24.6681 36.5639 24.5633 36.5104 24.4687C36.1625 23.537 35.757 22.6277 35.2965 21.7462C34.5309 20.3471 33.6838 18.9925 32.8632 17.6238C32.7758 17.5188 32.7114 17.3967 32.6739 17.2653C32.6365 17.134 32.627 16.9963 32.6458 16.861C32.6647 16.7257 32.7115 16.5959 32.7836 16.4797C32.8555 16.3636 32.9509 16.2638 33.0637 16.1867C33.3853 15.9011 33.6884 15.5952 33.9712 15.2709C35.4353 13.7052 36.9268 12.1542 37.7525 10.1258C38.0771 9.48793 38.243 8.78116 38.236 8.06549C38.0471 6.14124 35.7572 3.83799 33.8407 3.51179C31.6784 3.14376 29.5216 2.7433 27.3654 2.34027C26.2228 2.12667 25.728 2.55269 25.5212 3.66705C25.1986 5.40524 24.9677 7.15501 24.7021 8.90037C24.4019 10.8728 24.0976 12.8451 23.8398 14.8234C23.5452 17.0851 23.3269 19.3568 23.0237 21.6173C22.8191 23.1439 22.8959 24.7046 22.4454 26.1964ZM23.8531 27.9032C23.501 28.014 22.9946 27.7353 22.9086 28.1358C22.8302 28.5009 23.1719 28.8501 23.5275 29.0925C23.7754 29.2354 24.0607 29.3 24.3459 29.2778C25.1459 29.3068 25.9463 29.3334 26.7455 29.3785C27.0607 29.3963 27.4594 29.6801 27.5955 29.1636C27.626 29.065 27.6323 28.9604 27.6135 28.8589C27.5948 28.7573 27.5518 28.6618 27.4882 28.5805C27.4245 28.4992 27.3421 28.4346 27.2479 28.3922C27.1537 28.3497 27.0507 28.3307 26.9476 28.3368C25.8857 28.2978 24.8607 28.0279 23.8531 27.9032ZM32.8378 28.2403C32.8953 28.135 32.9271 28.0177 32.9307 27.8977C32.9345 27.7778 32.9098 27.6586 32.8588 27.55C31.9836 25.4092 30.974 23.3257 29.8362 21.3121C29.7016 21.054 29.6309 20.4811 29.1691 20.7636C28.753 21.0182 29.1889 21.3801 29.3211 21.6502C29.9944 23.0258 30.6872 24.3919 31.3994 25.7483C31.8281 26.5669 32.1109 27.4749 32.8378 28.2403Z" fill="#4035A7"/>
<path d="M47.7769 10.419C47.815 9.68477 47.9804 8.96273 48.2657 8.28511C48.3281 8.06415 48.4404 7.8605 48.5941 7.68986C48.7478 7.51924 48.9386 7.38619 49.1518 7.301C50.6205 6.85104 50.977 6.4904 51.515 8.41445C52.14 10.6493 52.0241 10.9708 49.8656 11.7172C49.7039 11.7732 49.5321 11.8 49.3708 11.8568C48.031 12.3285 47.6955 12.0888 47.7769 10.419ZM49.2491 9.68496C49.3076 9.93868 49.1245 10.3398 49.5768 10.3449C49.6496 10.3474 49.7222 10.3354 49.7904 10.3096C49.8585 10.2838 49.9208 10.2446 49.9736 10.1944C50.0264 10.1441 50.0687 10.0839 50.0979 10.0172C50.127 9.95037 50.1427 9.87852 50.1437 9.80564C50.1481 9.62995 50.0868 9.45893 49.9717 9.32605C49.8568 9.19317 49.6963 9.10794 49.5218 9.08704C49.1342 9.05914 49.3412 9.47755 49.2491 9.68496Z" fill="#4035A7"/>
<path d="M7.85775 11.0092C7.80612 9.83773 7.95404 8.6661 8.2952 7.54426C8.88335 5.8204 10.6778 5.37776 11.9352 6.71928C13.4515 8.33721 14.3011 10.3304 14.9355 12.4274C15.5184 14.3544 15.6073 16.247 14.6042 18.0758C14.3897 18.4815 14.0826 18.831 13.7077 19.0958C13.3329 19.3607 12.901 19.5335 12.4468 19.6003C11.9928 19.667 11.5294 19.6257 11.0942 19.48C10.659 19.3341 10.2643 19.0878 9.9421 18.761C9.12788 17.9095 8.58184 16.8375 8.37187 15.6783C8.01129 14.1486 7.83864 12.5807 7.85775 11.0092ZM10.5834 17.9369C10.755 18.5279 11.0219 18.6421 11.4443 18.3054L11.7646 18.1061C11.9333 18.1102 12.1013 18.1303 12.2662 18.1661C13.5257 18.561 13.83 18.431 14.4067 17.247C14.5258 17.0026 14.6274 16.7281 14.416 16.5348C14.1775 16.3167 13.9379 16.5564 13.7237 16.6777C13.3037 16.9156 13.1359 17.4426 12.6585 17.619L12.6079 17.564C12.3576 17.0181 13.2805 16.6279 12.8092 16.0525L12.8401 15.3782C13.286 15.026 13.2841 14.6727 12.8428 14.3184L12.804 13.8178C13.1125 13.385 12.9441 13.1157 12.5026 12.94L12.4496 12.6154C12.5079 12.2519 12.4573 11.8793 12.3041 11.5445C12.1509 11.2098 11.9021 10.9279 11.5889 10.7345C11.5503 10.7109 11.5207 10.6751 11.5047 10.6329C11.6276 10.242 11.4501 10.0724 11.0741 10.0491L11.075 10.0499C11.0407 9.36846 10.4447 9.35456 10.0097 9.22666C9.66106 9.12413 9.25989 9.18766 9.21079 9.70675C8.82026 10.8884 9.12028 12.1029 9.03995 13.2993C8.77534 13.7508 8.78897 14.1247 9.33354 14.3505L9.3934 14.8463C9.09135 15.2738 9.33748 15.5155 9.69044 15.721L9.73881 16.0497C9.71355 16.8162 9.8608 17.5054 10.584 17.9371L10.5834 17.9369Z" fill="#4035A7"/>
<path d="M22.4454 26.1964C22.8959 24.7046 22.8191 23.1439 23.0238 21.6174C23.3269 19.3568 23.5452 17.0851 23.8399 14.8234C24.0976 12.8451 24.4019 10.8728 24.7021 8.90038C24.9677 7.15502 25.1986 5.40525 25.5212 3.66707C25.7281 2.5527 26.2229 2.12668 27.3655 2.34028C29.5216 2.74331 31.6784 3.14377 33.8408 3.5118C35.7572 3.838 38.0472 6.14127 38.2361 8.0655C38.243 8.78118 38.0771 9.48793 37.7525 10.1258C36.9269 12.1542 35.4353 13.7052 33.9712 15.2709C33.6886 15.5952 33.3854 15.9011 33.0637 16.1867C32.951 16.2638 32.8555 16.3636 32.7836 16.4798C32.7117 16.5959 32.6647 16.7257 32.6458 16.861C32.627 16.9963 32.6365 17.134 32.674 17.2653C32.7114 17.3967 32.7758 17.5188 32.8632 17.6238C33.6838 18.9925 34.5309 20.3472 35.2965 21.7462C35.7571 22.6277 36.1624 23.537 36.5104 24.4687C36.564 24.5633 36.597 24.6681 36.6075 24.7763C36.6179 24.8845 36.6055 24.9937 36.5712 25.0969C36.5367 25.2 36.4811 25.2948 36.4077 25.375C36.3344 25.4553 36.245 25.5193 36.1455 25.5629C35.5597 25.8577 34.9984 26.1985 34.4667 26.5824C33.8783 27.0197 33.5472 26.9418 33.22 26.2722C32.2973 24.3836 31.3344 22.5143 30.3663 20.6484C29.8032 19.563 29.2019 18.4974 28.6122 17.426C28.4904 17.2047 28.3629 16.9084 28.057 16.9907C27.7489 17.0734 27.8102 17.3977 27.7892 17.6494C27.5605 20.3799 27.3524 23.1123 27.0921 25.8398C26.9505 27.3231 26.9094 27.3319 25.4612 27.2205C24.6647 27.1591 23.8716 27.0519 23.0782 26.955C22.9829 26.9584 22.888 26.9401 22.8009 26.9013C22.7138 26.8625 22.6367 26.8042 22.5756 26.731C22.5146 26.6578 22.4711 26.5715 22.4485 26.4788C22.426 26.3862 22.4249 26.2895 22.4454 26.1964ZM27.6008 10.7906C27.6008 11.298 27.6008 11.6126 27.6008 11.9271C27.6006 13.1311 27.7841 13.3168 28.9928 13.2858C29.925 13.2704 30.8406 13.0364 31.6659 12.6027C32.4912 12.1689 33.2033 11.5476 33.7449 10.7886C34.9463 9.214 34.9742 6.36626 32.9313 5.44754C31.5114 4.80896 30.0397 4.93956 28.5843 5.28417C28.3986 5.32943 28.2347 5.43838 28.121 5.59206C28.0073 5.74576 27.9512 5.93443 27.9623 6.12524C28.0659 7.76236 27.5168 9.34934 27.6008 10.7906Z" fill="#5EBAB4"/>
<path d="M23.8531 27.9032C24.8606 28.0279 25.8857 28.2978 26.9477 28.3368C27.0507 28.3307 27.1538 28.3497 27.2479 28.3922C27.342 28.4347 27.4244 28.4993 27.4881 28.5805C27.5518 28.6618 27.5949 28.7573 27.6136 28.8589C27.6322 28.9604 27.626 29.065 27.5954 29.1636C27.4594 29.6801 27.0608 29.3963 26.7456 29.3785C25.9463 29.3335 25.146 29.3068 24.3459 29.2778C24.0606 29.3 23.7754 29.2355 23.5275 29.0925C23.172 28.8501 22.8302 28.5009 22.9085 28.1358C22.9945 27.7353 23.5009 28.014 23.8531 27.9032Z" fill="#837CC6"/>
<path d="M32.8378 28.2403C32.111 27.4749 31.8281 26.5669 31.3995 25.7483C30.689 24.3914 29.9962 23.0253 29.3212 21.6501C29.189 21.3801 28.753 21.0182 29.1691 20.7636C29.6309 20.4811 29.7016 21.054 29.8363 21.3121C30.9741 23.3257 31.9836 25.4092 32.8588 27.55C32.9098 27.6586 32.9345 27.7778 32.9309 27.8977C32.9271 28.0177 32.8953 28.1351 32.8378 28.2403Z" fill="#837CC6"/>
<path d="M49.2491 9.68496C49.3413 9.47755 49.1344 9.05917 49.5219 9.08704C49.6964 9.10794 49.8569 9.19317 49.9719 9.32605C50.0868 9.45893 50.1481 9.62995 50.1438 9.80564C50.1427 9.87852 50.1272 9.95037 50.0979 10.0172C50.0687 10.0839 50.0265 10.1441 49.9736 10.1944C49.9209 10.2446 49.8586 10.2837 49.7905 10.3096C49.7223 10.3354 49.6497 10.3474 49.577 10.3448C49.1246 10.3398 49.3076 9.93877 49.2491 9.68496Z" fill="#837CC6"/>
<path d="M12.4495 12.6154C12.4673 12.7236 12.485 12.8318 12.5027 12.94C12.4668 13.0999 12.476 13.2666 12.5292 13.4216C12.5824 13.5766 12.6775 13.7137 12.8041 13.8179C12.817 13.9847 12.8299 14.1515 12.8427 14.3184C12.7547 14.6661 12.7538 15.0301 12.8402 15.3782L12.8092 16.0525L11.7647 18.1061L11.4443 18.3054C11.1284 18.266 10.83 18.1383 10.5835 17.9369L10.584 17.9371C10.3088 17.3051 10.1991 16.5989 9.73879 16.0497L9.69042 15.721C9.73308 15.5622 9.72766 15.3942 9.6747 15.2386C9.62185 15.0828 9.52399 14.9463 9.39338 14.8463C9.37346 14.6811 9.35352 14.5158 9.33359 14.3505C9.36766 14.1645 9.35896 13.9732 9.30804 13.7911C9.25718 13.6089 9.16549 13.4407 9.03996 13.2993C9.12028 12.1029 8.82027 10.8884 9.21078 9.70676C9.91926 9.34854 10.4888 9.74427 11.0749 10.05L11.0741 10.0491C11.0873 10.3397 11.2995 10.4837 11.5047 10.6329C11.5207 10.6751 11.5504 10.711 11.5889 10.7345C11.8506 11.373 11.9864 12.069 12.4495 12.6154Z" fill="#FCFCFD"/>
<path d="M11.7647 18.1061L12.8092 16.0525C13.2805 16.6279 12.3576 17.0181 12.6085 17.5647C12.5216 17.6225 12.4024 17.6613 12.3558 17.742C12.3463 17.7608 12.343 17.782 12.3462 17.8028C12.3493 17.8236 12.3589 17.8428 12.3736 17.858C12.3882 17.8731 12.4072 17.8832 12.4278 17.887C12.4485 17.8907 12.4698 17.888 12.4889 17.8791C12.5688 17.8323 12.6038 17.7088 12.6584 17.619C13.1358 17.4426 13.3038 16.9156 13.7237 16.6777C13.938 16.5564 14.1776 16.3167 14.416 16.5348C14.6275 16.7281 14.5258 17.0026 14.4067 17.247C13.8299 18.431 13.5258 18.561 12.2662 18.1661C12.1012 18.1303 11.9334 18.1102 11.7647 18.1061Z" fill="#837CC6"/>
<path d="M15.4647 7.90143C14.8786 7.59569 14.309 7.2 13.6005 7.55821C13.6496 7.03912 14.0508 6.9756 14.3995 7.07813C14.8345 7.20603 15.4305 7.21995 15.4647 7.90143Z" fill="#837CC6"/>
<path d="M12.4495 12.6154C11.9863 12.069 11.8506 11.373 11.5889 10.7345C11.9021 10.9279 12.1509 11.2098 12.3041 11.5445C12.4573 11.8793 12.5078 12.2519 12.4495 12.6154Z" fill="#837CC6"/>
<path d="M9.73878 16.0497C10.1991 16.5989 10.3087 17.3051 10.5839 17.9371C9.86077 17.5054 9.71352 16.8162 9.73878 16.0497Z" fill="#837CC6"/>
<path d="M9.03994 13.2993C9.16547 13.4407 9.25714 13.6089 9.30802 13.791C9.35888 13.9731 9.36767 14.1645 9.33356 14.3505C8.78896 14.1247 8.77533 13.7508 9.03994 13.2993Z" fill="#837CC6"/>
<path d="M12.804 13.8179C12.6775 13.7137 12.5824 13.5766 12.5292 13.4216C12.4759 13.2666 12.4668 13.0999 12.5026 12.94C12.9441 13.1157 13.1125 13.3851 12.804 13.8179Z" fill="#837CC6"/>
<path d="M12.8402 15.3782C12.7538 15.0301 12.7547 14.6661 12.8428 14.3184C13.2841 14.6727 13.286 15.0261 12.8402 15.3782Z" fill="#837CC6"/>
<path d="M9.39339 14.8463C9.5239 14.9463 9.62185 15.0828 9.67471 15.2386C9.72757 15.3942 9.733 15.5622 9.69043 15.721C9.33746 15.5156 9.09131 15.2738 9.39339 14.8463Z" fill="#837CC6"/>
<path d="M10.5834 17.9369C10.83 18.1383 11.1284 18.266 11.4442 18.3054C11.0219 18.6421 10.7549 18.5279 10.5834 17.9369Z" fill="#837CC6"/>
<path d="M11.5048 10.6329C11.2996 10.4837 11.0874 10.3397 11.0742 10.0491C11.4502 10.0724 11.6276 10.242 11.5048 10.6329Z" fill="#837CC6"/>
<path d="M27.6008 10.7907C27.5167 9.34936 28.0659 7.76238 27.9623 6.12525C27.9512 5.93443 28.0073 5.74576 28.121 5.59207C28.2347 5.43839 28.3986 5.32943 28.5843 5.28417C30.0397 4.93956 31.5114 4.80897 32.9313 5.44754C34.9742 6.36626 34.9463 9.214 33.7449 10.7886C33.2033 11.5476 32.4912 12.1689 31.6659 12.6027C30.8406 13.0364 29.925 13.2704 28.9928 13.2858C27.7841 13.3168 27.6006 13.1311 27.6008 11.9271C27.6009 11.6126 27.6008 11.2979 27.6008 10.7907ZM31.7855 7.96594C31.2303 7.89278 30.7676 8.0837 30.7452 8.79595C30.7202 9.59299 30.7479 10.3918 30.7515 11.1897C30.7537 11.6465 30.9498 11.7462 31.3399 11.5204C32.0247 11.1048 32.5814 10.5081 32.9486 9.7961C33.5638 8.68631 33.1466 7.99054 31.7855 7.96594ZM28.6495 9.57578H28.6413C28.6413 10.2058 28.6354 10.8359 28.6437 11.4658C28.6481 11.8022 28.5909 12.242 29.092 12.2286C29.5497 12.2164 29.6755 11.8421 29.6753 11.4276C29.6749 10.6544 29.6502 9.87946 29.6942 9.10854C29.712 8.59589 29.583 8.08884 29.3225 7.64695C29.2111 7.43774 29.0857 7.1751 28.854 7.20341C28.5379 7.24202 28.6615 7.56716 28.6556 7.77184C28.6386 8.37271 28.6495 8.9744 28.6495 9.57578Z" fill="#4035A7"/>
<path d="M12.6585 17.619C12.6038 17.7088 12.5689 17.8323 12.489 17.8791C12.4699 17.888 12.4485 17.8907 12.4279 17.887C12.4072 17.8832 12.3882 17.8731 12.3735 17.858C12.3589 17.8429 12.3493 17.8236 12.3462 17.8028C12.343 17.782 12.3464 17.7608 12.3558 17.742C12.4024 17.6613 12.5216 17.6225 12.6085 17.5647L12.6585 17.619Z" fill="#4035A7"/>
<path d="M31.7854 7.96594C33.1466 7.99054 33.5638 8.68631 32.9486 9.7961C32.5814 10.5081 32.0247 11.1048 31.3398 11.5204C30.9498 11.7462 30.7536 11.6465 30.7515 11.1897C30.7478 10.3917 30.7201 9.59299 30.7452 8.79594C30.7676 8.0837 31.2304 7.89278 31.7854 7.96594Z" fill="#FCFCFD"/>
<path d="M28.6496 9.57578C28.6496 8.97439 28.6385 8.3727 28.6557 7.77181C28.6615 7.56713 28.538 7.24199 28.854 7.20337C29.0856 7.17507 29.2112 7.43771 29.3226 7.64692C29.5831 8.08881 29.712 8.59587 29.6943 9.10851C29.6503 9.87936 29.6749 10.6543 29.6753 11.4275C29.6756 11.8421 29.5498 12.2164 29.0921 12.2286C28.591 12.2419 28.6482 11.8022 28.6438 11.4658C28.6355 10.8359 28.6414 10.2058 28.6414 9.57578H28.6496Z" fill="#837CC6"/>
</g>
</g>
<defs>
<filter id="filter0_d_3_85" x="0.203784" y="0.990328" width="83.6496" height="30.3863" filterUnits="userSpaceOnUse" color-interpolation-filters="sRGB">
<feFlood flood-opacity="0" result="BackgroundImageFix"/>
<feColorMatrix in="SourceAlpha" type="matrix" values="0 0 0 0 0 0 0 0 0 0 0 0 0 0 0 0 0 0 127 0" result="hardAlpha"/>
<feOffset dy="0.374219"/>
<feGaussianBlur stdDeviation="0.18711"/>
<feComposite in2="hardAlpha" operator="out"/>
<feColorMatrix type="matrix" values="0 0 0 0 0 0 0 0 0 0 0 0 0 0 0 0 0 0 0.25 0"/>
<feBlend mode="normal" in2="BackgroundImageFix" result="effect1_dropShadow_3_85"/>
<feBlend mode="normal" in="SourceGraphic" in2="effect1_dropShadow_3_85" result="shape"/>
</filter>
<clipPath id="clip0_3_85">
<rect width="84.48" height="31.9957" fill="white" transform="translate(0 0.00212669)"/>
</clipPath>
</defs>
</svg>
